<mxfile host="app.diagrams.net" agent="Mozilla/5.0 (Windows NT 10.0; Win64; x64) AppleWebKit/537.36 (KHTML, like Gecko) Chrome/135.0.0.0 Safari/537.36" version="26.2.12">
  <diagram id="C5RBs43oDa-KdzZeNtuy" name="Page-1">
    <mxGraphModel dx="717" dy="1194" grid="1" gridSize="10" guides="1" tooltips="1" connect="1" arrows="1" fold="1" page="1" pageScale="1" pageWidth="827" pageHeight="1169" math="0" shadow="0">
      <root>
        <mxCell id="WIyWlLk6GJQsqaUBKTNV-0" />
        <mxCell id="WIyWlLk6GJQsqaUBKTNV-1" parent="WIyWlLk6GJQsqaUBKTNV-0" />
        <mxCell id="WIyWlLk6GJQsqaUBKTNV-4" value="Yes" style="rounded=0;html=1;jettySize=auto;orthogonalLoop=1;fontSize=11;endArrow=block;endFill=0;endSize=8;strokeWidth=1;shadow=0;labelBackgroundColor=none;edgeStyle=orthogonalEdgeStyle;exitX=0.5;exitY=1;exitDx=0;exitDy=0;" parent="WIyWlLk6GJQsqaUBKTNV-1" source="Y_bvhizd9E-l49RVTs9C-3" target="Y_bvhizd9E-l49RVTs9C-6" edge="1">
          <mxGeometry y="20" relative="1" as="geometry">
            <mxPoint as="offset" />
            <mxPoint x="574" y="490" as="sourcePoint" />
            <mxPoint x="654" y="420" as="targetPoint" />
          </mxGeometry>
        </mxCell>
        <mxCell id="WIyWlLk6GJQsqaUBKTNV-5" value="No" style="edgeStyle=orthogonalEdgeStyle;rounded=0;html=1;jettySize=auto;orthogonalLoop=1;fontSize=11;endArrow=block;endFill=0;endSize=8;strokeWidth=1;shadow=0;labelBackgroundColor=none;exitX=0;exitY=0.5;exitDx=0;exitDy=0;entryX=0.425;entryY=-0.017;entryDx=0;entryDy=0;entryPerimeter=0;" parent="WIyWlLk6GJQsqaUBKTNV-1" source="Y_bvhizd9E-l49RVTs9C-6" target="Y_bvhizd9E-l49RVTs9C-11" edge="1">
          <mxGeometry y="10" relative="1" as="geometry">
            <mxPoint as="offset" />
            <mxPoint x="434" y="450" as="sourcePoint" />
            <mxPoint x="309" y="525" as="targetPoint" />
            <Array as="points">
              <mxPoint x="565" y="435" />
            </Array>
          </mxGeometry>
        </mxCell>
        <mxCell id="WIyWlLk6GJQsqaUBKTNV-8" value="No" style="rounded=0;html=1;jettySize=auto;orthogonalLoop=1;fontSize=11;endArrow=block;endFill=0;endSize=8;strokeWidth=1;shadow=0;labelBackgroundColor=none;edgeStyle=orthogonalEdgeStyle;exitX=0;exitY=0.5;exitDx=0;exitDy=0;" parent="WIyWlLk6GJQsqaUBKTNV-1" source="Y_bvhizd9E-l49RVTs9C-3" target="Y_bvhizd9E-l49RVTs9C-13" edge="1">
          <mxGeometry x="0.3333" y="20" relative="1" as="geometry">
            <mxPoint as="offset" />
            <mxPoint x="594" y="310" as="sourcePoint" />
            <mxPoint x="484" y="330" as="targetPoint" />
            <Array as="points" />
          </mxGeometry>
        </mxCell>
        <mxCell id="WIyWlLk6GJQsqaUBKTNV-9" value="Yes" style="edgeStyle=orthogonalEdgeStyle;rounded=0;html=1;jettySize=auto;orthogonalLoop=1;fontSize=11;endArrow=block;endFill=0;endSize=8;strokeWidth=1;shadow=0;labelBackgroundColor=none;exitX=1;exitY=0.5;exitDx=0;exitDy=0;" parent="WIyWlLk6GJQsqaUBKTNV-1" source="Y_bvhizd9E-l49RVTs9C-6" target="Y_bvhizd9E-l49RVTs9C-7" edge="1">
          <mxGeometry y="10" relative="1" as="geometry">
            <mxPoint as="offset" />
            <mxPoint x="794" y="600" as="sourcePoint" />
            <mxPoint x="754" y="560" as="targetPoint" />
            <Array as="points">
              <mxPoint x="724" y="435" />
            </Array>
          </mxGeometry>
        </mxCell>
        <mxCell id="Y_bvhizd9E-l49RVTs9C-2" value="" style="edgeStyle=orthogonalEdgeStyle;rounded=0;orthogonalLoop=1;jettySize=auto;html=1;" edge="1" parent="WIyWlLk6GJQsqaUBKTNV-1" source="Y_bvhizd9E-l49RVTs9C-0" target="Y_bvhizd9E-l49RVTs9C-1">
          <mxGeometry relative="1" as="geometry" />
        </mxCell>
        <mxCell id="Y_bvhizd9E-l49RVTs9C-0" value="Mulai" style="ellipse;whiteSpace=wrap;html=1;" vertex="1" parent="WIyWlLk6GJQsqaUBKTNV-1">
          <mxGeometry x="604" y="90" width="100" height="70" as="geometry" />
        </mxCell>
        <mxCell id="Y_bvhizd9E-l49RVTs9C-4" value="" style="edgeStyle=orthogonalEdgeStyle;rounded=0;orthogonalLoop=1;jettySize=auto;html=1;" edge="1" parent="WIyWlLk6GJQsqaUBKTNV-1" source="Y_bvhizd9E-l49RVTs9C-1" target="Y_bvhizd9E-l49RVTs9C-3">
          <mxGeometry relative="1" as="geometry" />
        </mxCell>
        <mxCell id="Y_bvhizd9E-l49RVTs9C-1" value="Baca dan cek nilai suhu dan kelembaban" style="shape=parallelogram;perimeter=parallelogramPerimeter;whiteSpace=wrap;html=1;fixedSize=1;" vertex="1" parent="WIyWlLk6GJQsqaUBKTNV-1">
          <mxGeometry x="569" y="180" width="170" height="60" as="geometry" />
        </mxCell>
        <mxCell id="Y_bvhizd9E-l49RVTs9C-3" value="Suhu &amp;lt; 30°?" style="rhombus;whiteSpace=wrap;html=1;" vertex="1" parent="WIyWlLk6GJQsqaUBKTNV-1">
          <mxGeometry x="606.5" y="260" width="95" height="100" as="geometry" />
        </mxCell>
        <mxCell id="Y_bvhizd9E-l49RVTs9C-6" value="Kelembaban &amp;gt; 60?" style="rhombus;whiteSpace=wrap;html=1;" vertex="1" parent="WIyWlLk6GJQsqaUBKTNV-1">
          <mxGeometry x="611.5" y="390" width="90" height="90" as="geometry" />
        </mxCell>
        <mxCell id="Y_bvhizd9E-l49RVTs9C-10" value="" style="edgeStyle=orthogonalEdgeStyle;rounded=0;orthogonalLoop=1;jettySize=auto;html=1;" edge="1" parent="WIyWlLk6GJQsqaUBKTNV-1" source="Y_bvhizd9E-l49RVTs9C-7" target="Y_bvhizd9E-l49RVTs9C-9">
          <mxGeometry relative="1" as="geometry" />
        </mxCell>
        <mxCell id="Y_bvhizd9E-l49RVTs9C-7" value="level_bahaya = &quot;Aman&quot;" style="rounded=0;whiteSpace=wrap;html=1;" vertex="1" parent="WIyWlLk6GJQsqaUBKTNV-1">
          <mxGeometry x="664" y="510" width="120" height="60" as="geometry" />
        </mxCell>
        <mxCell id="Y_bvhizd9E-l49RVTs9C-29" value="" style="edgeStyle=orthogonalEdgeStyle;rounded=0;orthogonalLoop=1;jettySize=auto;html=1;" edge="1" parent="WIyWlLk6GJQsqaUBKTNV-1" source="Y_bvhizd9E-l49RVTs9C-9" target="Y_bvhizd9E-l49RVTs9C-28">
          <mxGeometry relative="1" as="geometry" />
        </mxCell>
        <mxCell id="Y_bvhizd9E-l49RVTs9C-9" value="Tampilkan level_bahaya" style="shape=parallelogram;perimeter=parallelogramPerimeter;whiteSpace=wrap;html=1;fixedSize=1;" vertex="1" parent="WIyWlLk6GJQsqaUBKTNV-1">
          <mxGeometry x="664" y="620" width="120" height="60" as="geometry" />
        </mxCell>
        <mxCell id="Y_bvhizd9E-l49RVTs9C-12" style="edgeStyle=orthogonalEdgeStyle;rounded=0;orthogonalLoop=1;jettySize=auto;html=1;" edge="1" parent="WIyWlLk6GJQsqaUBKTNV-1" source="Y_bvhizd9E-l49RVTs9C-11" target="Y_bvhizd9E-l49RVTs9C-9">
          <mxGeometry relative="1" as="geometry">
            <Array as="points">
              <mxPoint x="574" y="630" />
            </Array>
          </mxGeometry>
        </mxCell>
        <mxCell id="Y_bvhizd9E-l49RVTs9C-11" value="level_bahaya = &quot;Waspada&quot;" style="rounded=0;whiteSpace=wrap;html=1;" vertex="1" parent="WIyWlLk6GJQsqaUBKTNV-1">
          <mxGeometry x="514" y="510" width="120" height="60" as="geometry" />
        </mxCell>
        <mxCell id="Y_bvhizd9E-l49RVTs9C-13" value="Suhu &amp;gt;= 30° dan Suhu &amp;lt; 40°?" style="rhombus;whiteSpace=wrap;html=1;" vertex="1" parent="WIyWlLk6GJQsqaUBKTNV-1">
          <mxGeometry x="449" y="260" width="90" height="100" as="geometry" />
        </mxCell>
        <mxCell id="Y_bvhizd9E-l49RVTs9C-14" value="Yes" style="rounded=0;html=1;jettySize=auto;orthogonalLoop=1;fontSize=11;endArrow=block;endFill=0;endSize=8;strokeWidth=1;shadow=0;labelBackgroundColor=none;edgeStyle=orthogonalEdgeStyle;exitX=0.5;exitY=1;exitDx=0;exitDy=0;" edge="1" parent="WIyWlLk6GJQsqaUBKTNV-1" source="Y_bvhizd9E-l49RVTs9C-13" target="Y_bvhizd9E-l49RVTs9C-15">
          <mxGeometry y="20" relative="1" as="geometry">
            <mxPoint as="offset" />
            <mxPoint x="504" y="344.44444444444434" as="sourcePoint" />
            <mxPoint x="514" y="410" as="targetPoint" />
            <Array as="points">
              <mxPoint x="494" y="360" />
            </Array>
          </mxGeometry>
        </mxCell>
        <mxCell id="Y_bvhizd9E-l49RVTs9C-15" value="Kelembaban &amp;gt; 50?" style="rhombus;whiteSpace=wrap;html=1;" vertex="1" parent="WIyWlLk6GJQsqaUBKTNV-1">
          <mxGeometry x="449" y="390" width="90" height="90" as="geometry" />
        </mxCell>
        <mxCell id="Y_bvhizd9E-l49RVTs9C-16" value="Yes" style="rounded=0;html=1;jettySize=auto;orthogonalLoop=1;fontSize=11;endArrow=block;endFill=0;endSize=8;strokeWidth=1;shadow=0;labelBackgroundColor=none;edgeStyle=orthogonalEdgeStyle;entryX=0;entryY=0.5;entryDx=0;entryDy=0;" edge="1" parent="WIyWlLk6GJQsqaUBKTNV-1" source="Y_bvhizd9E-l49RVTs9C-15" target="Y_bvhizd9E-l49RVTs9C-11">
          <mxGeometry x="0.25" y="-10" relative="1" as="geometry">
            <mxPoint as="offset" />
            <mxPoint x="493.5" y="500" as="sourcePoint" />
            <mxPoint x="493.5" y="530" as="targetPoint" />
            <Array as="points" />
          </mxGeometry>
        </mxCell>
        <mxCell id="Y_bvhizd9E-l49RVTs9C-17" value="No" style="rounded=0;html=1;jettySize=auto;orthogonalLoop=1;fontSize=11;endArrow=block;endFill=0;endSize=8;strokeWidth=1;shadow=0;labelBackgroundColor=none;edgeStyle=orthogonalEdgeStyle;exitX=0;exitY=0.5;exitDx=0;exitDy=0;" edge="1" parent="WIyWlLk6GJQsqaUBKTNV-1" source="Y_bvhizd9E-l49RVTs9C-15" target="Y_bvhizd9E-l49RVTs9C-18">
          <mxGeometry x="0.3333" y="20" relative="1" as="geometry">
            <mxPoint as="offset" />
            <mxPoint x="399" y="430" as="sourcePoint" />
            <mxPoint x="399" y="510" as="targetPoint" />
            <Array as="points">
              <mxPoint x="399" y="435" />
            </Array>
          </mxGeometry>
        </mxCell>
        <mxCell id="Y_bvhizd9E-l49RVTs9C-19" style="edgeStyle=orthogonalEdgeStyle;rounded=0;orthogonalLoop=1;jettySize=auto;html=1;" edge="1" parent="WIyWlLk6GJQsqaUBKTNV-1" source="Y_bvhizd9E-l49RVTs9C-18" target="Y_bvhizd9E-l49RVTs9C-9">
          <mxGeometry relative="1" as="geometry">
            <Array as="points">
              <mxPoint x="399" y="650" />
            </Array>
          </mxGeometry>
        </mxCell>
        <mxCell id="Y_bvhizd9E-l49RVTs9C-18" value="level_bahaya = &quot;Bahaya&quot;" style="rounded=0;whiteSpace=wrap;html=1;" vertex="1" parent="WIyWlLk6GJQsqaUBKTNV-1">
          <mxGeometry x="339" y="510" width="120" height="60" as="geometry" />
        </mxCell>
        <mxCell id="Y_bvhizd9E-l49RVTs9C-20" value="No" style="rounded=0;html=1;jettySize=auto;orthogonalLoop=1;fontSize=11;endArrow=block;endFill=0;endSize=8;strokeWidth=1;shadow=0;labelBackgroundColor=none;edgeStyle=orthogonalEdgeStyle;" edge="1" parent="WIyWlLk6GJQsqaUBKTNV-1" source="Y_bvhizd9E-l49RVTs9C-13" target="Y_bvhizd9E-l49RVTs9C-21">
          <mxGeometry x="0.3333" y="20" relative="1" as="geometry">
            <mxPoint as="offset" />
            <mxPoint x="617" y="320" as="sourcePoint" />
            <mxPoint x="309" y="310" as="targetPoint" />
            <Array as="points" />
          </mxGeometry>
        </mxCell>
        <mxCell id="Y_bvhizd9E-l49RVTs9C-21" value="Suhu &amp;gt;= 40°?" style="rhombus;whiteSpace=wrap;html=1;" vertex="1" parent="WIyWlLk6GJQsqaUBKTNV-1">
          <mxGeometry x="249" y="262.5" width="90" height="95" as="geometry" />
        </mxCell>
        <mxCell id="Y_bvhizd9E-l49RVTs9C-22" value="Yes" style="rounded=0;html=1;jettySize=auto;orthogonalLoop=1;fontSize=11;endArrow=block;endFill=0;endSize=8;strokeWidth=1;shadow=0;labelBackgroundColor=none;edgeStyle=orthogonalEdgeStyle;" edge="1" parent="WIyWlLk6GJQsqaUBKTNV-1" source="Y_bvhizd9E-l49RVTs9C-21" target="Y_bvhizd9E-l49RVTs9C-23">
          <mxGeometry y="20" relative="1" as="geometry">
            <mxPoint as="offset" />
            <mxPoint x="504" y="370" as="sourcePoint" />
            <mxPoint x="299" y="400" as="targetPoint" />
            <Array as="points" />
          </mxGeometry>
        </mxCell>
        <mxCell id="Y_bvhizd9E-l49RVTs9C-23" value="Kelembaban &amp;gt; 40?" style="rhombus;whiteSpace=wrap;html=1;" vertex="1" parent="WIyWlLk6GJQsqaUBKTNV-1">
          <mxGeometry x="251.5" y="390" width="85" height="90" as="geometry" />
        </mxCell>
        <mxCell id="Y_bvhizd9E-l49RVTs9C-24" value="Yes" style="rounded=0;html=1;jettySize=auto;orthogonalLoop=1;fontSize=11;endArrow=block;endFill=0;endSize=8;strokeWidth=1;shadow=0;labelBackgroundColor=none;edgeStyle=orthogonalEdgeStyle;" edge="1" parent="WIyWlLk6GJQsqaUBKTNV-1" source="Y_bvhizd9E-l49RVTs9C-23" target="Y_bvhizd9E-l49RVTs9C-18">
          <mxGeometry y="20" relative="1" as="geometry">
            <mxPoint as="offset" />
            <mxPoint x="289" y="510" as="sourcePoint" />
            <mxPoint x="304" y="400" as="targetPoint" />
            <Array as="points">
              <mxPoint x="293" y="540" />
            </Array>
          </mxGeometry>
        </mxCell>
        <mxCell id="Y_bvhizd9E-l49RVTs9C-25" value="No" style="rounded=0;html=1;jettySize=auto;orthogonalLoop=1;fontSize=11;endArrow=block;endFill=0;endSize=8;strokeWidth=1;shadow=0;labelBackgroundColor=none;edgeStyle=orthogonalEdgeStyle;exitX=0;exitY=0.5;exitDx=0;exitDy=0;" edge="1" parent="WIyWlLk6GJQsqaUBKTNV-1" source="Y_bvhizd9E-l49RVTs9C-23" target="Y_bvhizd9E-l49RVTs9C-26">
          <mxGeometry x="0.3333" y="20" relative="1" as="geometry">
            <mxPoint as="offset" />
            <mxPoint x="249" y="435" as="sourcePoint" />
            <mxPoint x="199" y="510" as="targetPoint" />
            <Array as="points">
              <mxPoint x="199" y="435" />
            </Array>
          </mxGeometry>
        </mxCell>
        <mxCell id="Y_bvhizd9E-l49RVTs9C-27" style="edgeStyle=orthogonalEdgeStyle;rounded=0;orthogonalLoop=1;jettySize=auto;html=1;" edge="1" parent="WIyWlLk6GJQsqaUBKTNV-1" source="Y_bvhizd9E-l49RVTs9C-26" target="Y_bvhizd9E-l49RVTs9C-9">
          <mxGeometry relative="1" as="geometry">
            <mxPoint x="664" y="680" as="targetPoint" />
            <Array as="points">
              <mxPoint x="210" y="670" />
            </Array>
          </mxGeometry>
        </mxCell>
        <mxCell id="Y_bvhizd9E-l49RVTs9C-26" value="level_bahaya = &quot;Darurat&quot;" style="rounded=0;whiteSpace=wrap;html=1;" vertex="1" parent="WIyWlLk6GJQsqaUBKTNV-1">
          <mxGeometry x="150" y="510" width="120" height="60" as="geometry" />
        </mxCell>
        <mxCell id="Y_bvhizd9E-l49RVTs9C-28" value="Selesai" style="ellipse;whiteSpace=wrap;html=1;" vertex="1" parent="WIyWlLk6GJQsqaUBKTNV-1">
          <mxGeometry x="673" y="710" width="102" height="70" as="geometry" />
        </mxCell>
        <mxCell id="Y_bvhizd9E-l49RVTs9C-30" value="No" style="rounded=0;html=1;jettySize=auto;orthogonalLoop=1;fontSize=11;endArrow=block;endFill=0;endSize=8;strokeWidth=1;shadow=0;labelBackgroundColor=none;edgeStyle=orthogonalEdgeStyle;" edge="1" parent="WIyWlLk6GJQsqaUBKTNV-1" source="Y_bvhizd9E-l49RVTs9C-21" target="Y_bvhizd9E-l49RVTs9C-31">
          <mxGeometry x="0.3333" y="20" relative="1" as="geometry">
            <mxPoint as="offset" />
            <mxPoint x="183" y="310" as="sourcePoint" />
            <mxPoint x="90" y="500" as="targetPoint" />
            <Array as="points">
              <mxPoint x="90" y="310" />
            </Array>
          </mxGeometry>
        </mxCell>
        <mxCell id="Y_bvhizd9E-l49RVTs9C-32" style="edgeStyle=orthogonalEdgeStyle;rounded=0;orthogonalLoop=1;jettySize=auto;html=1;entryX=0;entryY=1;entryDx=0;entryDy=0;" edge="1" parent="WIyWlLk6GJQsqaUBKTNV-1" source="Y_bvhizd9E-l49RVTs9C-31" target="Y_bvhizd9E-l49RVTs9C-9">
          <mxGeometry relative="1" as="geometry">
            <mxPoint x="60.00000000000006" y="700" as="targetPoint" />
            <Array as="points">
              <mxPoint x="60" y="690" />
              <mxPoint x="664" y="690" />
            </Array>
          </mxGeometry>
        </mxCell>
        <mxCell id="Y_bvhizd9E-l49RVTs9C-31" value="Kondisi Suhu Tidak Terdefinisi" style="rounded=0;whiteSpace=wrap;html=1;" vertex="1" parent="WIyWlLk6GJQsqaUBKTNV-1">
          <mxGeometry x="20" y="510" width="120" height="60" as="geometry" />
        </mxCell>
      </root>
    </mxGraphModel>
  </diagram>
</mxfile>
